<?xml version="1.0" encoding="UTF-8"?>

<svg version="1.2" baseProfile="tiny" width="149mm" height="127.01mm" viewBox="3100 4300 14900 12701" preserveAspectRatio="xMidYMid" fill-rule="evenodd" stroke-width="28.222" stroke-linejoin="round" xmlns="http://www.w3.org/2000/svg" xmlns:xlink="http://www.w3.org/1999/xlink" xml:space="preserve">
 <g visibility="visible" id="Slide_1">
  <g id="Drawing_1">
   <path fill="rgb(147,62,197)" stroke="none" d="M 12541,16042 L 12281,14028 C 12273,13967 12201,13917 12121,13917 L 10090,13917 C 10010,13917 9938,13967 9930,14028 L 9670,16042 C 9670,16044 9668,16046 9668,16049 L 9668,16273 C 9668,16397 9786,16497 9930,16497 L 12281,16497 C 12425,16497 12543,16397 12543,16273 L 12543,16049 C 12543,16046 12541,16044 12541,16042 Z M 10646,14675 L 10935,14949 11593,14478 11772,14662 10908,15281 10439,14836 10646,14675 Z M 12281,16385 L 9930,16385 C 9858,16385 9799,16335 9799,16273 L 9799,16049 C 9799,15987 9858,15936 9930,15936 L 12282,15936 C 12353,15936 12412,15987 12412,16049 L 12412,16273 12412,16273 C 12412,16335 12353,16385 12281,16385 Z"/>
   <path fill="rgb(147,62,197)" stroke="none" d="M 10081,16080 C 10133,16080 10175,16116 10175,16161 10175,16205 10133,16242 10081,16242 10029,16242 9987,16205 9987,16161 9987,16116 10029,16080 10081,16080 L 10081,16080 Z"/>
   <rect fill="none" stroke="none" x="9590" y="13905" width="3032" height="2605"/>
   <rect fill="none" stroke="none" x="9600" y="13914" width="3012" height="2587"/>
  </g>
  <g id="Drawing_2">
   <path fill="rgb(0,0,0)" stroke="none" d="M 4058,9917 L 4058,12993 6350,12993 6350,9917 4058,9917 4058,9917 Z M 6253,12885 L 4155,12885 4155,10025 6253,10025 6253,12885 6253,12885 Z"/>
   <path fill="rgb(0,0,0)" stroke="none" d="M 4747,11875 L 4492,12018 C 4469,12027 4447,12039 4427,12056 4318,12143 4294,12312 4373,12432 4421,12505 4495,12544 4571,12544 4620,12544 4670,12527 4714,12492 4734,12476 4751,12457 4766,12435 L 5150,12009 5149,12020 C 5167,12021 5186,12022 5204,12022 5675,12022 6057,11598 6057,11077 6057,10556 5675,10133 5204,10133 4733,10133 4351,10556 4351,11077 4351,11403 4501,11702 4747,11875 L 4747,11875 Z M 4694,12362 C 4692,12364 4691,12366 4689,12368 4680,12382 4669,12395 4656,12405 4591,12458 4499,12441 4452,12369 4404,12297 4419,12195 4484,12143 4497,12133 4511,12125 4526,12120 4528,12119 4531,12118 4533,12116 L 5307,11682 4694,12362 4694,12362 Z M 5204,10241 C 5621,10241 5960,10616 5960,11077 5960,11526 5639,11893 5237,11912 L 5591,11519 C 5608,11500 5610,11470 5596,11449 5582,11428 5556,11421 5535,11433 L 4851,11817 C 4602,11671 4448,11388 4448,11077 4448,10616 4787,10241 5204,10241 L 5204,10241 Z"/>
   <path fill="rgb(0,0,0)" stroke="none" d="M 5204,11428 C 5379,11428 5521,11271 5521,11077 5521,10884 5379,10726 5204,10726 5029,10726 4887,10884 4887,11077 4887,11271 5029,11428 5204,11428 L 5204,11428 Z M 5204,10834 C 5325,10834 5423,10943 5423,11077 5423,11211 5325,11320 5204,11320 5083,11320 4985,11211 4985,11077 4985,10943 5083,10834 5204,10834 L 5204,10834 Z"/>
   <path fill="rgb(0,0,0)" stroke="none" d="M 6204,10187 C 6204,10206 6200,10223 6191,10241 6182,10258 6171,10270 6155,10280 6139,10290 6124,10295 6106,10295 6088,10295 6073,10290 6057,10280 6042,10270 6031,10258 6022,10241 6013,10223 6009,10206 6009,10187 6009,10167 6013,10150 6022,10133 6031,10115 6042,10103 6057,10093 6073,10083 6088,10079 6106,10079 6124,10079 6139,10083 6155,10093 6171,10103 6182,10115 6191,10133 6200,10150 6204,10167 6204,10187 L 6204,10187 Z"/>
   <path fill="rgb(0,0,0)" stroke="none" d="M 6204,12723 C 6204,12743 6200,12760 6191,12777 6182,12795 6171,12807 6155,12817 6139,12827 6124,12831 6106,12831 6088,12831 6073,12827 6057,12817 6042,12807 6031,12795 6022,12777 6013,12760 6009,12743 6009,12723 6009,12704 6013,12687 6022,12669 6031,12652 6042,12640 6057,12630 6073,12620 6088,12615 6106,12615 6124,12615 6139,12620 6155,12630 6171,12640 6182,12652 6191,12669 6200,12687 6204,12704 6204,12723 L 6204,12723 Z"/>
   <path fill="rgb(0,0,0)" stroke="none" d="M 4399,10187 C 4399,10206 4395,10223 4386,10241 4377,10258 4366,10270 4351,10280 4335,10290 4320,10295 4302,10295 4284,10295 4269,10290 4253,10280 4237,10270 4226,10258 4217,10241 4208,10223 4204,10206 4204,10187 4204,10167 4208,10150 4217,10133 4226,10115 4237,10103 4253,10093 4269,10083 4284,10079 4302,10079 4320,10079 4335,10083 4351,10093 4366,10103 4377,10115 4386,10133 4395,10150 4399,10167 4399,10187 L 4399,10187 Z"/>
   <path fill="rgb(0,0,0)" stroke="none" d="M 4399,12723 C 4399,12743 4395,12760 4386,12777 4377,12795 4366,12807 4351,12817 4335,12827 4320,12831 4302,12831 4284,12831 4269,12827 4253,12817 4237,12807 4226,12795 4217,12777 4208,12760 4204,12743 4204,12723 4204,12704 4208,12687 4217,12669 4226,12652 4237,12640 4253,12630 4269,12620 4284,12615 4302,12615 4320,12615 4335,12620 4351,12630 4366,12640 4377,12652 4386,12669 4395,12687 4399,12704 4399,12723 L 4399,12723 Z"/>
   <path fill="rgb(0,0,0)" stroke="none" d="M 4643,12292 C 4643,12311 4639,12328 4630,12346 4621,12363 4610,12375 4594,12385 4579,12395 4564,12400 4546,12400 4528,12400 4512,12395 4497,12385 4481,12375 4470,12363 4461,12346 4452,12328 4448,12311 4448,12292 4448,12272 4452,12255 4461,12238 4470,12220 4481,12208 4497,12198 4512,12188 4528,12184 4546,12184 4564,12184 4579,12188 4594,12198 4610,12208 4621,12220 4630,12238 4639,12255 4643,12272 4643,12292 L 4643,12292 Z"/>
   <rect fill="none" stroke="none" x="3801" y="9902" width="2807" height="3107"/>
   <rect fill="none" stroke="none" x="3808" y="9910" width="2793" height="3091"/>
  </g>
  <g id="Drawing_3">
   <path fill="rgb(0,0,0)" stroke="none" d="M 7043,4538 L 3357,4538 C 3218,4538 3104,4655 3104,4797 L 3104,7403 C 3104,7546 3218,7662 3357,7662 L 4620,7662 4620,7850 C 4620,8023 4483,8164 4314,8164 L 4036,8164 C 3982,8164 3939,8208 3939,8263 3939,8317 3982,8362 4036,8362 L 6364,8362 C 6418,8362 6461,8317 6461,8263 6461,8208 6418,8164 6364,8164 L 6086,8164 C 5917,8164 5780,8023 5780,7850 L 5780,7662 7043,7662 C 7182,7662 7296,7546 7296,7403 L 7296,4797 C 7296,4655 7182,4538 7043,4538 L 7043,4538 Z M 4708,8164 C 4774,8077 4813,7968 4813,7850 L 4813,7662 5587,7662 5587,7850 C 5587,7968 5626,8077 5692,8164 L 4708,8164 4708,8164 Z M 7103,7403 C 7103,7437 7076,7464 7043,7464 L 3357,7464 C 3324,7464 3297,7437 3297,7403 L 3297,6883 7103,6883 7103,7403 7103,7403 Z M 7103,6685 L 3297,6685 3297,4797 C 3297,4764 3324,4736 3357,4736 L 7043,4736 C 7076,4736 7103,4764 7103,4797 L 7103,6685 7103,6685 Z"/>
   <path fill="rgb(0,0,0)" stroke="none" d="M 5304,7173 C 5304,7193 5300,7210 5290,7227 5281,7244 5269,7256 5252,7266 5236,7276 5219,7280 5200,7280 5181,7280 5165,7276 5148,7266 5131,7256 5119,7244 5110,7227 5100,7210 5096,7193 5096,7173 5096,7154 5100,7137 5110,7120 5119,7103 5131,7091 5148,7081 5165,7071 5181,7067 5200,7067 5219,7067 5236,7071 5252,7081 5269,7091 5281,7103 5290,7120 5300,7137 5304,7154 5304,7173 L 5304,7173 Z"/>
   <path fill="rgb(0,0,0)" stroke="none" d="M 5366,5220 C 5328,5181 5267,5181 5229,5220 L 4546,5919 C 4508,5958 4508,6020 4546,6059 4565,6078 4590,6088 4614,6088 4639,6088 4664,6078 4683,6059 L 5366,5360 C 5403,5321 5403,5259 5366,5220 L 5366,5220 Z"/>
   <path fill="rgb(0,0,0)" stroke="none" d="M 5770,5625 C 5733,5587 5672,5587 5634,5625 L 5362,5904 C 5324,5942 5324,6005 5362,6044 5381,6063 5405,6073 5430,6073 5455,6073 5480,6063 5498,6044 L 5770,5765 C 5808,5726 5808,5664 5770,5625 L 5770,5625 Z"/>
   <rect fill="none" stroke="none" x="3091" y="4291" width="4219" height="4319"/>
   <rect fill="none" stroke="none" x="3100" y="4300" width="4201" height="4301"/>
  </g>
  <g>
   <path fill="none" stroke="rgb(128,128,128)" id="Drawing_4_0" stroke-linejoin="round" d="M 5204,9910 L 5204,9255 5200,9255 5200,8600"/>
  </g>
  <g>
   <path fill="none" stroke="rgb(0,0,0)" id="Drawing_5_0" stroke-linejoin="round" d="M 6600,11455 L 11105,11455 11105,13464"/>
   <path fill="rgb(0,0,0)" stroke="none" id="Drawing_5_1" d="M 11105,13914 L 11255,13464 10955,13464 11105,13914 Z"/>
  </g>
  <g>
   <path fill="none" stroke="rgb(0,0,0)" id="Drawing_6_0" stroke-linejoin="round" d="M 11105,16500 L 11105,17000 5204,17000 5204,13450"/>
   <path fill="rgb(0,0,0)" stroke="none" id="Drawing_6_1" d="M 5204,13000 L 5054,13450 5354,13450 5204,13000 Z"/>
  </g>
  <g id="Drawing_7">
   <path fill="rgb(0,0,0)" stroke="none" d="M 14758,9917 L 14758,12993 17050,12993 17050,9917 14758,9917 14758,9917 Z M 16953,12885 L 14855,12885 14855,10025 16953,10025 16953,12885 16953,12885 Z"/>
   <path fill="rgb(0,0,0)" stroke="none" d="M 15447,11875 L 15192,12018 C 15169,12027 15147,12039 15127,12056 15018,12143 14994,12312 15073,12432 15121,12505 15195,12544 15271,12544 15320,12544 15370,12527 15414,12492 15434,12476 15451,12457 15466,12435 L 15850,12009 15849,12020 C 15867,12021 15886,12022 15904,12022 16375,12022 16757,11598 16757,11077 16757,10556 16375,10133 15904,10133 15433,10133 15051,10556 15051,11077 15051,11403 15201,11702 15447,11875 L 15447,11875 Z M 15394,12362 C 15392,12364 15391,12366 15389,12368 15380,12382 15369,12395 15356,12405 15291,12458 15199,12441 15152,12369 15104,12297 15119,12195 15184,12143 15197,12133 15211,12125 15226,12120 15228,12119 15231,12118 15233,12116 L 16007,11682 15394,12362 15394,12362 Z M 15904,10241 C 16321,10241 16660,10616 16660,11077 16660,11526 16339,11893 15937,11912 L 16291,11519 C 16308,11500 16310,11470 16296,11449 16282,11428 16256,11421 16235,11433 L 15551,11817 C 15302,11671 15148,11388 15148,11077 15148,10616 15487,10241 15904,10241 L 15904,10241 Z"/>
   <path fill="rgb(0,0,0)" stroke="none" d="M 15904,11428 C 16079,11428 16221,11271 16221,11077 16221,10884 16079,10726 15904,10726 15729,10726 15587,10884 15587,11077 15587,11271 15729,11428 15904,11428 L 15904,11428 Z M 15904,10834 C 16025,10834 16123,10943 16123,11077 16123,11211 16025,11320 15904,11320 15783,11320 15685,11211 15685,11077 15685,10943 15783,10834 15904,10834 L 15904,10834 Z"/>
   <path fill="rgb(0,0,0)" stroke="none" d="M 16904,10187 C 16904,10206 16900,10223 16891,10241 16882,10258 16871,10270 16855,10280 16839,10290 16824,10295 16806,10295 16788,10295 16773,10290 16757,10280 16742,10270 16731,10258 16722,10241 16713,10223 16709,10206 16709,10187 16709,10167 16713,10150 16722,10133 16731,10115 16742,10103 16757,10093 16773,10083 16788,10079 16806,10079 16824,10079 16839,10083 16855,10093 16871,10103 16882,10115 16891,10133 16900,10150 16904,10167 16904,10187 L 16904,10187 Z"/>
   <path fill="rgb(0,0,0)" stroke="none" d="M 16904,12723 C 16904,12743 16900,12760 16891,12777 16882,12795 16871,12807 16855,12817 16839,12827 16824,12831 16806,12831 16788,12831 16773,12827 16757,12817 16742,12807 16731,12795 16722,12777 16713,12760 16709,12743 16709,12723 16709,12704 16713,12687 16722,12669 16731,12652 16742,12640 16757,12630 16773,12620 16788,12615 16806,12615 16824,12615 16839,12620 16855,12630 16871,12640 16882,12652 16891,12669 16900,12687 16904,12704 16904,12723 L 16904,12723 Z"/>
   <path fill="rgb(0,0,0)" stroke="none" d="M 15099,10187 C 15099,10206 15095,10223 15086,10241 15077,10258 15066,10270 15051,10280 15035,10290 15020,10295 15002,10295 14984,10295 14969,10290 14953,10280 14937,10270 14926,10258 14917,10241 14908,10223 14904,10206 14904,10187 14904,10167 14908,10150 14917,10133 14926,10115 14937,10103 14953,10093 14969,10083 14984,10079 15002,10079 15020,10079 15035,10083 15051,10093 15066,10103 15077,10115 15086,10133 15095,10150 15099,10167 15099,10187 L 15099,10187 Z"/>
   <path fill="rgb(0,0,0)" stroke="none" d="M 15099,12723 C 15099,12743 15095,12760 15086,12777 15077,12795 15066,12807 15051,12817 15035,12827 15020,12831 15002,12831 14984,12831 14969,12827 14953,12817 14937,12807 14926,12795 14917,12777 14908,12760 14904,12743 14904,12723 14904,12704 14908,12687 14917,12669 14926,12652 14937,12640 14953,12630 14969,12620 14984,12615 15002,12615 15020,12615 15035,12620 15051,12630 15066,12640 15077,12652 15086,12669 15095,12687 15099,12704 15099,12723 L 15099,12723 Z"/>
   <path fill="rgb(0,0,0)" stroke="none" d="M 15343,12292 C 15343,12311 15339,12328 15330,12346 15321,12363 15310,12375 15294,12385 15279,12395 15264,12400 15246,12400 15228,12400 15212,12395 15197,12385 15181,12375 15170,12363 15161,12346 15152,12328 15148,12311 15148,12292 15148,12272 15152,12255 15161,12238 15170,12220 15181,12208 15197,12198 15212,12188 15228,12184 15246,12184 15264,12184 15279,12188 15294,12198 15310,12208 15321,12220 15330,12238 15339,12255 15343,12272 15343,12292 L 15343,12292 Z"/>
   <rect fill="none" stroke="none" x="14501" y="9902" width="2807" height="3107"/>
   <rect fill="none" stroke="none" x="14508" y="9910" width="2793" height="3091"/>
  </g>
  <g id="Drawing_8">
   <path fill="rgb(0,0,0)" stroke="none" d="M 17743,4538 L 14057,4538 C 13918,4538 13804,4655 13804,4797 L 13804,7403 C 13804,7546 13918,7662 14057,7662 L 15320,7662 15320,7850 C 15320,8023 15183,8164 15014,8164 L 14736,8164 C 14682,8164 14639,8208 14639,8263 14639,8317 14682,8362 14736,8362 L 17064,8362 C 17118,8362 17161,8317 17161,8263 17161,8208 17118,8164 17064,8164 L 16786,8164 C 16617,8164 16480,8023 16480,7850 L 16480,7662 17743,7662 C 17882,7662 17996,7546 17996,7403 L 17996,4797 C 17996,4655 17882,4538 17743,4538 L 17743,4538 Z M 15408,8164 C 15474,8077 15513,7968 15513,7850 L 15513,7662 16287,7662 16287,7850 C 16287,7968 16326,8077 16392,8164 L 15408,8164 15408,8164 Z M 17803,7403 C 17803,7437 17776,7464 17743,7464 L 14057,7464 C 14024,7464 13997,7437 13997,7403 L 13997,6883 17803,6883 17803,7403 17803,7403 Z M 17803,6685 L 13997,6685 13997,4797 C 13997,4764 14024,4736 14057,4736 L 17743,4736 C 17776,4736 17803,4764 17803,4797 L 17803,6685 17803,6685 Z"/>
   <path fill="rgb(0,0,0)" stroke="none" d="M 16004,7173 C 16004,7193 16000,7210 15990,7227 15981,7244 15969,7256 15952,7266 15936,7276 15919,7280 15900,7280 15881,7280 15865,7276 15848,7266 15831,7256 15819,7244 15810,7227 15800,7210 15796,7193 15796,7173 15796,7154 15800,7137 15810,7120 15819,7103 15831,7091 15848,7081 15865,7071 15881,7067 15900,7067 15919,7067 15936,7071 15952,7081 15969,7091 15981,7103 15990,7120 16000,7137 16004,7154 16004,7173 L 16004,7173 Z"/>
   <path fill="rgb(0,0,0)" stroke="none" d="M 16066,5220 C 16028,5181 15967,5181 15929,5220 L 15246,5919 C 15208,5958 15208,6020 15246,6059 15265,6078 15290,6088 15314,6088 15339,6088 15364,6078 15383,6059 L 16066,5360 C 16103,5321 16103,5259 16066,5220 L 16066,5220 Z"/>
   <path fill="rgb(0,0,0)" stroke="none" d="M 16470,5625 C 16433,5587 16372,5587 16334,5625 L 16062,5904 C 16024,5942 16024,6005 16062,6044 16081,6063 16105,6073 16130,6073 16155,6073 16180,6063 16198,6044 L 16470,5765 C 16508,5726 16508,5664 16470,5625 L 16470,5625 Z"/>
   <rect fill="none" stroke="none" x="13791" y="4291" width="4219" height="4319"/>
   <rect fill="none" stroke="none" x="13800" y="4300" width="4201" height="4301"/>
  </g>
  <g>
   <path fill="none" stroke="rgb(0,0,0)" id="Drawing_9_0" stroke-linejoin="round" d="M 11105,16500 L 11105,17000 15904,17000 15904,13450"/>
   <path fill="rgb(0,0,0)" stroke="none" id="Drawing_9_1" d="M 15904,13000 L 15754,13450 16054,13450 15904,13000 Z"/>
  </g>
  <g>
   <path fill="none" stroke="rgb(128,128,128)" id="Drawing_10_0" stroke-linejoin="round" d="M 15900,8600 L 15900,9255 15904,9255 15904,9910"/>
  </g>
 </g>
</svg>